<svg xmlns="http://www.w3.org/2000/svg" width="50" height="50" viewBox="0 0 50 50">
  <path id="ja2bpoedp" d="M 22.712 5 C 25.029 5 27.571 6.454 28.746 8.451 L 35.796 20.437 C 36.596 21.796 37.039 23.424 37.039 25 C 37.039 26.576 36.596 28.204 35.796 29.563 L 28.746 41.549 C 27.571 43.546 25.029 45 22.712 45 L 19 45 C 17.214 45 15.313 44.213 14.05 42.95 C 12.787 41.687 12 39.786 12 38 L 12 12 C 12 10.214 12.787 8.313 14.05 7.05 C 15.313 5.787 17.214 5 19 5 L 22.712 5 Z M 18 38 C 18 38.471 18.529 39 19 39 L 22.712 39 C 23.043 39 23.406 38.792 23.574 38.507 L 30.625 26.521 C 31.139 25.647 31.139 24.353 30.625 23.479 L 23.574 11.493 C 23.406 11.208 23.043 11 22.712 11 L 19 11 C 18.529 11 18 11.529 18 12 L 18 38 Z" fill="#000000" fill-rule="nonzero" stroke-width="0" stroke-miterlimit="4"/>
</svg>
