<svg xmlns="http://www.w3.org/2000/svg" width="50" height="50" viewBox="0 0 50 50">
  <path id="p5g26ee5f" d="M 27.288 45 C 24.971 45 22.429 43.546 21.254 41.549 L 13.905 29.056 C 12.534 26.725 12.534 23.275 13.905 20.944 L 21.254 8.451 C 22.429 6.454 24.971 5 27.288 5 L 31 5 C 32.786 5 34.687 5.787 35.95 7.05 C 37.213 8.313 38 10.214 38 12 L 38 38 C 38 39.786 37.213 41.687 35.95 42.95 C 34.687 44.213 32.786 45 31 45 L 27.288 45 Z M 32 12 C 32 11.529 31.471 11 31 11 L 27.288 11 C 26.957 11 26.594 11.208 26.426 11.493 L 19.077 23.986 C 18.734 24.569 18.734 25.431 19.077 26.014 L 26.426 38.507 C 26.594 38.792 26.957 39 27.288 39 L 31 39 C 31.471 39 32 38.471 32 38 L 32 12 Z" fill="#000000" fill-rule="nonzero" stroke-width="0" stroke-miterlimit="4"/>
</svg>
