<svg xmlns="http://www.w3.org/2000/svg" width="50" height="50" viewBox="0 0 50 50">
  <path id="drbu4121u" d="M 23.2 14.9 C 24.16 15.62 25.84 15.62 26.8 14.9 L 36.8 7.4 C 37.855 6.609 39.189 6.101 40.505 6.009 C 41.735 5.924 43.028 6.188 44.13 6.739 C 45.233 7.29 46.22 8.167 46.89 9.202 C 47.606 10.309 48 11.681 48 13 L 48 37 C 48 38.319 47.606 39.691 46.89 40.798 C 46.22 41.833 45.233 42.71 44.13 43.261 C 43.028 43.812 41.735 44.076 40.505 43.991 C 39.189 43.899 37.855 43.391 36.8 42.6 L 26.792 35.094 C 25.833 34.375 24.157 34.373 23.197 35.09 L 13.187 42.562 C 12.132 43.35 10.799 43.855 9.484 43.944 C 8.255 44.027 6.964 43.762 5.862 43.21 C 4.761 42.658 3.776 41.781 3.108 40.747 C 2.393 39.64 2 38.27 2 36.952 L 2 13 C 2 11.681 2.394 10.309 3.11 9.202 C 3.78 8.167 4.767 7.29 5.87 6.739 C 6.972 6.188 8.265 5.924 9.495 6.009 C 10.811 6.101 12.145 6.609 13.2 7.4 L 23.2 14.9 Z M 8 36.952 C 8 37.303 8.239 37.689 8.552 37.846 C 8.865 38.003 9.318 37.963 9.598 37.754 L 19.608 30.282 C 21.126 29.148 23.108 28.492 25.002 28.494 C 26.896 28.496 28.876 29.157 30.392 30.294 L 40.4 37.8 C 40.68 38.01 41.134 38.051 41.447 37.894 C 41.761 37.738 42 37.35 42 37 L 42 13 C 42 12.65 41.761 12.262 41.447 12.106 C 41.134 11.949 40.68 11.99 40.4 12.2 L 30.4 19.7 C 28.882 20.838 26.897 21.5 25 21.5 C 23.103 21.5 21.118 20.838 19.6 19.7 L 9.6 12.2 C 9.32 11.99 8.866 11.949 8.553 12.106 C 8.239 12.262 8 12.65 8 13 L 8 36.952 Z" fill="#000000" fill-rule="nonzero" stroke-width="0" stroke-miterlimit="4"/>
</svg>
