<svg xmlns="http://www.w3.org/2000/svg" width="50" height="50" viewBox="0 0 50 50">
  <path id="c4izaz1sw" d="M 42.879 18.636 C 44.502 20.26 45.515 22.704 45.515 25 C 45.515 27.296 44.502 29.74 42.879 31.364 L 31.364 42.879 C 29.74 44.502 27.296 45.515 25 45.515 C 22.704 45.515 20.26 44.502 18.636 42.879 L 7.121 31.364 C 5.498 29.74 4.485 27.296 4.485 25 C 4.485 22.704 5.498 20.26 7.121 18.636 L 18.636 7.121 C 20.26 5.498 22.704 4.485 25 4.485 C 27.296 4.485 29.74 5.498 31.364 7.121 L 42.879 18.636 Z M 11.364 22.879 C 10.823 23.42 10.485 24.235 10.485 25 C 10.485 25.765 10.823 26.58 11.364 27.121 L 22.879 38.636 C 23.42 39.177 24.235 39.515 25 39.515 C 25.765 39.515 26.58 39.177 27.121 38.636 L 38.636 27.121 C 39.177 26.58 39.515 25.765 39.515 25 C 39.515 24.235 39.177 23.42 38.636 22.879 L 27.121 11.364 C 26.58 10.823 25.765 10.485 25 10.485 C 24.235 10.485 23.42 10.823 22.879 11.364 L 11.364 22.879 Z" fill="#000000" fill-rule="nonzero" stroke-width="0" stroke-miterlimit="4"/>
</svg>
