<svg xmlns="http://www.w3.org/2000/svg" width="480" height="300" viewBox="-40 20 480 300" data-svg-animator-signature="fnv1a32-5ad33bef">
  <defs>
    <linearGradient id="path-gradient" data-render-role="gradient" gradientUnits="userSpaceOnUse" spreadMethod="reflect" gradientTransform="matrix(1 0 0 1 0 0)" x1="20" y1="40" x2="170" y2="140">
      <stop id="path-stop-a" data-render-role="gradient-stop" offset="0" stop-color="#ff0066" stop-opacity="0.85"/>
      <stop id="path-stop-b" data-render-role="gradient-stop" offset="1" stop-color="#00ccff" stop-opacity="0.6666666666666666"/>
    </linearGradient>
    <radialGradient id="radial-gradient" data-render-role="gradient" gradientUnits="objectBoundingBox" spreadMethod="pad" cx="0.5" cy="0.5" r="0.5" fx="0.35" fy="0.35">
      <stop id="radial-stop-a" data-render-role="gradient-stop" offset="0" stop-color="#fde047"/>
      <stop id="radial-stop-b" data-render-role="gradient-stop" offset="1" stop-color="#f97316" stop-opacity="0.7"/>
    </radialGradient>
  </defs>
  <g id="stage" data-svg-animator-target="" transform="matrix(1 0 0 1 8 -4)">
    <defs>
      <mask id="stroke-draw-motion-path" x="-100%" y="-100%" width="300%" height="300%" maskUnits="objectBoundingBox"><path data-render-role="geometry reveal" d="M 30 190 C 120 20 270 250 360 70" fill="none" stroke="white" stroke-width="4" stroke-linecap="round" pathLength="1" stroke-dasharray="1" stroke-dashoffset="0"/></mask>
    </defs>
    <g id="motion-path" data-svg-animator-target="" opacity="0.2">
      <path data-render-role="geometry fill" d="M 30 190 C 120 20 270 250 360 70" fill="none" fill-rule="evenodd"/>
      <path data-render-role="geometry stroke" d="M 30 190 C 120 20 270 250 360 70" fill="none" stroke="#64748b" stroke-width="1" stroke-linecap="round" stroke-linejoin="round" stroke-miterlimit="4" stroke-dasharray="6 4" stroke-dashoffset="0" mask="url(#stroke-draw-motion-path)"/>
    </g>
    <defs>
      <clipPath id="stroke-inside-compound-path"><path data-render-role="geometry-effect" d="M 20 40 L 152 40 C 161.941 40 170 48.059 170 58 L 170 138 C 170 144.627 164.627 150 158 150 L 40 150 C 28.954 150 20 141.046 20 130 L 20 40 Z M 70 75 C 105 55 145 95 125 115 L 70 75 Z" fill-rule="evenodd"/></clipPath>
      <mask id="stroke-draw-compound-path" x="-100%" y="-100%" width="300%" height="300%" maskUnits="objectBoundingBox"><path data-render-role="geometry reveal" d="M 20 40 L 152 40 C 161.941 40 170 48.059 170 58 L 170 138 C 170 144.627 164.627 150 158 150 L 40 150 C 28.954 150 20 141.046 20 130 L 20 40 Z M 70 75 C 105 55 145 95 125 115 L 70 75 Z" fill="none" stroke="white" stroke-width="32" stroke-linecap="round" pathLength="1" stroke-dasharray="1" stroke-dashoffset="0.15000000000000002"/></mask>
    </defs>
    <g id="compound-path" data-svg-animator-target="">
      <path data-render-role="geometry fill" d="M 20 40 L 152 40 C 161.941 40 170 48.059 170 58 L 170 138 C 170 144.627 164.627 150 158 150 L 40 150 C 28.954 150 20 141.046 20 130 L 20 40 Z M 70 75 C 105 55 145 95 125 115 L 70 75 Z" fill="url(#path-gradient)" fill-rule="evenodd"/>
      <path data-render-role="geometry stroke" d="M 20 40 L 152 40 C 161.941 40 170 48.059 170 58 L 170 138 C 170 144.627 164.627 150 158 150 L 40 150 C 28.954 150 20 141.046 20 130 L 20 40 Z M 70 75 C 105 55 145 95 125 115 L 70 75 Z" fill="none" stroke="#111827" stroke-opacity="0.8" stroke-width="16" stroke-linecap="round" stroke-linejoin="round" stroke-miterlimit="6" stroke-dasharray="12 6" stroke-dashoffset="2" clip-path="url(#stroke-inside-compound-path)" mask="url(#stroke-draw-compound-path)"/>
    </g>
    <defs>
      <mask id="stroke-outside-reflecting-rect" x="-100%" y="-100%" width="300%" height="300%" maskUnits="objectBoundingBox"><rect x="-100%" y="-100%" width="300%" height="300%" fill="white"/><rect id="" x="215" y="42" width="90" height="80" rx="14" ry="14" data-render-role="geometry-effect" fill="black"/></mask>
    </defs>
    <g id="reflecting-rect" data-svg-animator-target="" transform="matrix(0.9903 -0.1392 0.1392 0.9903 -8.8819 36.983)" opacity="0.9">
      <rect id="" x="215" y="42" width="90" height="80" rx="14" ry="14" data-render-role="geometry fill" fill="#7c3aed" fill-opacity="0.8"/>
      <rect id="" x="215" y="42" width="90" height="80" rx="14" ry="14" data-render-role="geometry stroke" fill="none" stroke="#f8fafc" stroke-width="10" stroke-linecap="square" stroke-linejoin="bevel" stroke-miterlimit="4" mask="url(#stroke-outside-reflecting-rect)"/>
    </g>
    <defs>
      <clipPath id="clip-clipped-group">
        <ellipse id="clip-circle" cx="355" cy="170" rx="45" ry="45"/>
      </clipPath>
    </defs>
    <g id="clipped-group" data-svg-animator-target="" clip-path="url(#clip-clipped-group)">
      <defs>
        <clipPath id="stroke-inside-radial-ellipse"><ellipse id="" cx="355" cy="170" rx="65" ry="55" data-render-role="geometry-effect"/></clipPath>
      </defs>
      <g id="radial-ellipse" data-svg-animator-target="">
        <ellipse id="" cx="355" cy="170" rx="65" ry="55" data-render-role="geometry fill" fill="url(#radial-gradient)"/>
        <ellipse id="" cx="355" cy="170" rx="65" ry="55" data-render-role="geometry stroke" fill="none" stroke="#0f172a" stroke-width="14" stroke-linecap="round" stroke-linejoin="round" stroke-miterlimit="4" clip-path="url(#stroke-inside-radial-ellipse)"/>
      </g>
    </g>
    <rect id="motion-dot" data-svg-animator-target="" data-render-role="geometry fill stroke" x="8" y="8" transform="matrix(0.7096 -0.7046 0.7046 0.7096 0.3269 182.8232)" width="16" height="16" fill="#06b6d4" stroke="#ffffff" stroke-width="2" stroke-miterlimit="4"/>
    <text id="caption" data-svg-animator-target="" data-render-role="geometry fill" x="205" y="245" font-size="18" font-family="system-ui" font-weight="700" text-anchor="start" fill="#e2e8f0" dominant-baseline="hanging">
      <tspan>Runtime v1</tspan>
      <tspan x="205" dy="21.599999999999998">Showcase</tspan>
    </text>
  </g>
  <circle cx="440" cy="280" r="6" fill="#94a3b8"/>
</svg>